<?xml version="1.0" encoding="utf-8"?>
<!-- Generator: Adobe Illustrator 27.5.0, SVG Export Plug-In . SVG Version: 6.00 Build 0)  -->
<svg version="1.1" xmlns="http://www.w3.org/2000/svg" xmlns:xlink="http://www.w3.org/1999/xlink" x="0px" y="0px"
	 viewBox="0 0 3710 3710" style="enable-background:new 0 0 3710 3710;" xml:space="preserve">
<g id="Background">
	<g>
		<g>
			<rect style="fill:#FFFFFF;" width="3710" height="3710"/>
		</g>
	</g>
</g>
<g id="Illustration">
	<g>
		<linearGradient id="SVGID_1_" gradientUnits="userSpaceOnUse" x1="3587.6313" y1="4012.6267" x2="1143.4146" y2="977.0626">
			<stop  offset="0" style="stop-color:#DAE3FE"/>
			<stop  offset="1" style="stop-color:#E9EFFD"/>
		</linearGradient>
		<path style="fill:url(#SVGID_1_);" d="M2915.212,2815.51c-56.143,59.104-109.264,97.22-151.235,127.335
			c-493.354,353.987-1077.123,250.802-1201.19,225.603c-183.208-37.211-537.346-109.138-793.382-410.23
			c-387.36-455.528-327.043-1173.199-26.58-1646.943c54.959-86.656,345.271-567.617,935.327-644.748
			c357.096-46.679,773.355,47.467,1074.798,300.016C3385.706,1296.666,3340.661,2367.611,2915.212,2815.51z"/>
		<g style="opacity:0.9;">
			<path style="fill:#91B3FA;" d="M1356.864,3162.387c0,0-166.491-838.194-557.84-1306.459
				c-26.307-31.478-76.979-21.57-89.25,17.575C627.726,2135.259,459.519,2932.18,1356.864,3162.387z"/>
			<path style="fill:#BDD0FB;" d="M1276.036,3105.778c1.956,2.057-0.844,5.095-3.059,3.319
				c-81.646-65.483-394.917-384.029-492.385-999.591c-0.313-1.977,2.601-2.62,3.084-0.677
				C819.24,2251.991,966.703,2780.479,1276.036,3105.778z"/>
		</g>
		<g>
			<path style="fill:#BDD0FB;" d="M1269.433,3242.174c0,0-318.106-662.794-744.407-969.225
				c-28.657-20.599-68.759-1.499-70.606,33.745C442.069,2542.359,472.455,3242.389,1269.433,3242.174z"/>
			<path style="opacity:0.5;fill:#FFFFFF;" d="M1189.968,3212.302c2.071,1.295,0.387,4.426-1.838,3.42
				c-82.046-37.091-411.249-235.477-624.196-727.536c-0.684-1.581,1.607-2.74,2.425-1.224
				C626.629,2598.641,862.602,3007.446,1189.968,3212.302z"/>
		</g>
		<g>
			<g>
				
					<linearGradient id="SVGID_00000109708042872100815810000002915116952406525331_" gradientUnits="userSpaceOnUse" x1="855.7874" y1="1923.719" x2="2711.3855" y2="1923.719" gradientTransform="matrix(0.9998 -0.0219 0.0219 0.9998 28.2232 -27.654)">
					<stop  offset="0" style="stop-color:#09005D"/>
					<stop  offset="1" style="stop-color:#1A0F91"/>
				</linearGradient>
				<path style="fill:url(#SVGID_00000109708042872100815810000002915116952406525331_);" d="M1059.929,493.517
					c-71.946,6.257-127.107,66.511-127.312,138.728c-1.253,441.639-3.319,1964.97,25.467,2504.144
					c3.049,57.121,49.879,101.993,107.078,102.609c282.907,3.045,1096.678,8.641,1558.66-20.909
					c96.223-6.155,171.101-85.85,170.984-182.27c-0.561-463.516-7.967-1767.082-71.461-2362.927
					c-7.607-71.391-64.996-127.116-136.574-132.693C2278.218,516.159,1458.851,458.823,1059.929,493.517z"/>
				<path style="fill:#FFFFFF;" d="M1046.18,747.985c-5.556,377.783-21.375,1634.511,6.24,2098.347
					c4.036,67.796,56.698,121.32,121.724,123.586c267.731,9.331,954.283,27.385,1345.493-15.66
					c70.444-7.751,124.282-68.81,126.159-142.745c9.786-385.527,36.219-1556.023,9.381-2014.672
					c-4.282-73.167-60.181-131.549-130.252-136.271c-289.889-19.534-1034.29-64.581-1366.961-36.877
					C1095.514,628.893,1047.142,682.582,1046.18,747.985z"/>
				
					<linearGradient id="SVGID_00000150810507930800135120000006552530010632614819_" gradientUnits="userSpaceOnUse" x1="1840.1659" y1="648.3783" x2="1865.5168" y2="-20.8742">
					<stop  offset="0" style="stop-color:#4042E2"/>
					<stop  offset="1" style="stop-color:#4F52FF"/>
				</linearGradient>
				<path style="fill:url(#SVGID_00000150810507930800135120000006552530010632614819_);" d="M1693.05,559.202
					c0.229,10.437,8.553,18.867,18.987,19.184c51.516,1.565,196.638,6.008,261.503,8.345c12.789,0.461,22.563-11.241,19.864-23.751
					c-0.222-0.394-1.884-16.434-18.265-17.572c-43.878-3.051-176.254-11.277-263.732-6.23
					C1693.444,540.214,1692.467,560.643,1693.05,559.202z"/>
			</g>
		</g>
		<path style="fill:#91B3FA;" d="M1758.45,2140.097h-540.267c-38.609,0-69.908-31.299-69.908-69.908v-445.8
			c0-34.951,28.333-63.285,63.285-63.285h543.373c29.138,0,52.758,23.621,52.758,52.758v476.993
			C1807.691,2118.051,1785.645,2140.097,1758.45,2140.097z"/>
		<path style="fill:#91B3FA;" d="M2460.671,2831.542l-1228.158,30.811c-46.178,1.158-84.239-35.959-84.239-82.152v-489.588
			c0-45.952,37.252-83.204,83.204-83.204h1259.641c38.366,0,69.467,31.102,69.467,69.467v452.212
			C2560.586,2784.689,2516.253,2830.148,2460.671,2831.542z"/>
		<path style="fill:#91B3FA;" d="M2481.158,1011.172l-1261.473,18.416c-29.577,0.432-53.785-23.425-53.785-53.005V765.781
			c0-44.989,37.271-81.03,82.234-79.522l1205.58,40.443c52.065,1.747,93.369,44.459,93.369,96.554v121.019
			C2547.084,980.844,2517.723,1010.638,2481.158,1011.172z"/>
		
			<linearGradient id="SVGID_00000079458450448603914790000009166524384657585029_" gradientUnits="userSpaceOnUse" x1="1295.2949" y1="539.375" x2="2028.0424" y2="1502.4144">
			<stop  offset="0" style="stop-color:#FE7062"/>
			<stop  offset="1" style="stop-color:#FF928E"/>
		</linearGradient>
		<path style="fill:url(#SVGID_00000079458450448603914790000009166524384657585029_);" d="M2475.729,1453.603l-1221.973,17.84
			c-45.347,0.662-82.464-35.916-82.464-81.268v-196.781c0-37.545,30.07-68.173,67.609-68.864l1238.672-22.781
			c41.143-0.757,74.903,32.388,74.903,73.539v200.439C2552.476,1418.298,2518.295,1452.982,2475.729,1453.603z"/>
		<path style="fill:#91B3FA;" d="M2492.176,2125.444h-537.638c-32.443,0-58.743-26.3-58.743-58.743v-458.929
			c0-33.867,27.454-61.321,61.321-61.321h539.242c32.504,0,58.854,26.35,58.854,58.853v457.104
			C2555.211,2097.222,2526.99,2125.444,2492.176,2125.444z"/>
		<g>
			
				<linearGradient id="SVGID_00000053522394160729746970000001311373945082868145_" gradientUnits="userSpaceOnUse" x1="-5796.2881" y1="3089.0728" x2="-6447.9902" y2="3797.9421" gradientTransform="matrix(-1 0 0 1 -3159.3877 0)">
				<stop  offset="0" style="stop-color:#4042E2"/>
				<stop  offset="1" style="stop-color:#4F52FF"/>
			</linearGradient>
			<path style="fill:url(#SVGID_00000053522394160729746970000001311373945082868145_);" d="M2842.905,3141.879
				c0,0,6.749,38.208,10.058,76.03c1.293,14.782-10.103,27.616-24.928,28.234c-50.368,2.098-158.107,6.177-196.767,4.452
				c-5.812-0.259-9.612-6.209-7.46-11.615l0,0c1.802-4.529,5.279-8.191,9.708-10.227l177.965-81.792L2842.905,3141.879z"/>
			
				<linearGradient id="SVGID_00000080917611273513570500000002573392638917814681_" gradientUnits="userSpaceOnUse" x1="-6007.8208" y1="3141.7217" x2="-5949.9336" y2="3141.7217" gradientTransform="matrix(-1 0 0 1 -3159.3877 0)">
				<stop  offset="0" style="stop-color:#A22B25"/>
				<stop  offset="1" style="stop-color:#C0423C"/>
			</linearGradient>
			<path style="fill:url(#SVGID_00000080917611273513570500000002573392638917814681_);" d="M2848.433,3119.429l-5.422,45.702
				c0,0-31.175,14.512-52.465-1.829l12.91-50.931L2848.433,3119.429z"/>
			
				<linearGradient id="SVGID_00000013150653012391474390000008082053714707617696_" gradientUnits="userSpaceOnUse" x1="-6145.0854" y1="2699.0957" x2="-5953.6812" y2="2699.0957" gradientTransform="matrix(-1 0 0 1 -3159.3877 0)">
				<stop  offset="0" style="stop-color:#09005D"/>
				<stop  offset="1" style="stop-color:#1A0F91"/>
			</linearGradient>
			<path style="fill:url(#SVGID_00000013150653012391474390000008082053714707617696_);" d="M2844.358,2260.214
				c2.343,11.935,12.573,595.577-49.815,857.127c-1.018,4.268,1.146,8.667,5.207,10.326c9.569,3.91,28.328,9.571,50.809,10.326
				c6.962,0.234,13.204-4.291,15.168-10.974c17.833-60.683,103.287-364.726,114.434-655.168c12.456-324.541,0-11.051,0-11.051
				l-7.305-200.611L2844.358,2260.214z"/>
			
				<linearGradient id="SVGID_00000140710641494611125030000017597562888760131724_" gradientUnits="userSpaceOnUse" x1="-5942.4868" y1="2954.6641" x2="-6594.1895" y2="3663.5347" gradientTransform="matrix(-1 0 0 1 -3159.3877 0)">
				<stop  offset="0" style="stop-color:#4042E2"/>
				<stop  offset="1" style="stop-color:#4F52FF"/>
			</linearGradient>
			<path style="fill:url(#SVGID_00000140710641494611125030000017597562888760131724_);" d="M3047.623,3161.813
				c0,0,10.743,19.289,21.144,70.544c1.878,9.257-4.589,18.116-13.989,19.04c-16.631,1.635-42.235,3.738-62.744,3.597
				c-9.455-0.065-16.833-8.297-15.694-17.683c2.271-18.709,9.349-49.403,31.212-73.327L3047.623,3161.813z"/>
			
				<linearGradient id="SVGID_00000133515715602103536180000014086398562637136269_" gradientUnits="userSpaceOnUse" x1="-6216.4468" y1="3138.7529" x2="-6166.4663" y2="3138.7529" gradientTransform="matrix(-1 0 0 1 -3159.3877 0)">
				<stop  offset="0" style="stop-color:#A22B25"/>
				<stop  offset="1" style="stop-color:#C0423C"/>
			</linearGradient>
			<path style="fill:url(#SVGID_00000133515715602103536180000014086398562637136269_);" d="M3057.059,3103.029l-12.67,69.114
				c0,0-12.528,9.318-37.31,2.563l6.048-74.362L3057.059,3103.029z"/>
			
				<linearGradient id="SVGID_00000113327164487990187920000015058822766161700498_" gradientUnits="userSpaceOnUse" x1="-6270.3179" y1="2692.833" x2="-5998.585" y2="2692.833" gradientTransform="matrix(-1 0 0 1 -3159.3877 0)">
				<stop  offset="0" style="stop-color:#09005D"/>
				<stop  offset="1" style="stop-color:#1A0F91"/>
			</linearGradient>
			<path style="fill:url(#SVGID_00000113327164487990187920000015058822766161700498_);" d="M3091.288,2278.124
				c51.024,307.935-11.068,761.086-32.01,849.779c-1.282,5.43-5.664,9.59-11.168,10.502c-9.347,1.55-24.738,2.814-39.909-1.593
				c-5.228-1.518-8.901-6.233-9.114-11.673c-2.81-71.706,2.247-511.907-45.296-685.876c-2.409-8.816-7.794-16.506-15.243-21.801
				l-92.277-65.601l-7.075-106.039L3091.288,2278.124z"/>
			<g>
				
					<linearGradient id="SVGID_00000096019079798682601970000012990160397985396874_" gradientUnits="userSpaceOnUse" x1="11130.6396" y1="-15111.4531" x2="10251.7793" y2="-14239.3525" gradientTransform="matrix(-1 0 0 1 -3159.3877 0)">
					<stop  offset="0" style="stop-color:#FE7062"/>
					<stop  offset="1" style="stop-color:#FF928E"/>
				</linearGradient>
				<path style="fill:url(#SVGID_00000096019079798682601970000012990160397985396874_);" d="M2766.16,1694.646
					c152.91-2.526,321.629,40.15,321.629,40.15c45.579,265.954,7.97,572.712,7.97,572.712
					c-118.379,31.045-251.918-18.98-251.918-18.98c-19.675-111.162-111.476-424.009-111.476-424.009
					c-74.711-9.273-136.257-30.828-186.94-59.326c38.66-44.813,56.886-101.836,64.802-135.543
					C2664.29,1686.452,2718.997,1695.426,2766.16,1694.646z"/>
				
					<linearGradient id="SVGID_00000091717817739382791050000016350666567399174541_" gradientUnits="userSpaceOnUse" x1="-5603.9834" y1="1631.5116" x2="-5308.2471" y2="1631.5116" gradientTransform="matrix(-1 0 0 1 -3159.3877 0)">
					<stop  offset="0" style="stop-color:#A22B25"/>
					<stop  offset="1" style="stop-color:#C0423C"/>
				</linearGradient>
				<path style="fill:url(#SVGID_00000091717817739382791050000016350666567399174541_);" d="M2314.491,1469.419
					c15.021-18.143,34.032-9.56,34.032-9.56c22.502,95.051,140.489,172.12,261.704,209.792
					c-7.917,33.707-26.142,90.73-64.802,135.543C2344.258,1692.085,2314.491,1469.419,2314.491,1469.419z"/>
			</g>
			<g>
				
					<linearGradient id="SVGID_00000080897797592947528150000008539573864597778100_" gradientUnits="userSpaceOnUse" x1="15987.5371" y1="1581.9393" x2="16185.9834" y2="2033.449" gradientTransform="matrix(1 0 0 1 -13607.166 0)">
					<stop  offset="0" style="stop-color:#A22B25"/>
					<stop  offset="1" style="stop-color:#C0423C"/>
				</linearGradient>
				<path style="fill:url(#SVGID_00000080897797592947528150000008539573864597778100_);" d="M2318.137,1474.032
					c-1.572,4.997,16.629,12.605,27.346-7.831c0.375-9.794,6.331-51.753,0.479-59.732c-31.17-42.495-91.602-95.765-91.602-95.765
					c-10.213,10.078-1.799,19.978-1.799,19.978l29.316,30.54c-6.132,11.081-13.611,20.434-17.116,33.837
					c-2.655,10.15-1.031,20.997,4.096,30.235c5.146,9.271,12.167,21.322,18.804,30.754
					C2300.223,1473.898,2318.137,1474.032,2318.137,1474.032z"/>
				
					<linearGradient id="SVGID_00000058585255352399484180000006997906474628134288_" gradientUnits="userSpaceOnUse" x1="2638.0215" y1="1146.1505" x2="1941.6914" y2="1703.8903">
					<stop  offset="0" style="stop-color:#A22B25"/>
					<stop  offset="1" style="stop-color:#C0423C"/>
				</linearGradient>
				<path style="fill:url(#SVGID_00000058585255352399484180000006997906474628134288_);" d="M2294.7,1381.037l26.715,22.647
					l8.387,22.549l-23.819,26.424c0,0-8.008-44.739-13.961-54.423C2286.07,1388.551,2289.156,1383.869,2294.7,1381.037z"/>
			</g>
			
				<linearGradient id="SVGID_00000010989079618846216620000005650994064629659065_" gradientUnits="userSpaceOnUse" x1="10982.0605" y1="-15261.1416" x2="10103.2002" y2="-14389.041" gradientTransform="matrix(-1 0 0 1 -3159.3877 0)">
				<stop  offset="0" style="stop-color:#FE7062"/>
				<stop  offset="1" style="stop-color:#FF928E"/>
			</linearGradient>
			<path style="fill:url(#SVGID_00000010989079618846216620000005650994064629659065_);" d="M3029.139,1882.858l58.65-148.062
				c0,0,142.826,97.044,166.314,220.086c-26.987,1.987-76.094,9.007-124.161,33.278
				C3119.379,1930.062,3029.139,1882.858,3029.139,1882.858z"/>
			
				<linearGradient id="SVGID_00000128450214699496142880000002761620231908848801_" gradientUnits="userSpaceOnUse" x1="-6416.7471" y1="2050.4141" x2="-6042.4902" y2="2050.4141" gradientTransform="matrix(-1 0 0 1 -3159.3877 0)">
				<stop  offset="0" style="stop-color:#A22B25"/>
				<stop  offset="1" style="stop-color:#C0423C"/>
			</linearGradient>
			<path style="fill:url(#SVGID_00000128450214699496142880000002761620231908848801_);" d="M2904.324,2022.179
				c0,0,160.358,90.627,214.465,13.242c11.234-16.068,13.92-32.037,11.153-47.261c48.067-24.271,97.174-31.29,124.161-33.278
				c7.083,37.092,3.338,76.544-18.458,116.416c-94.778,173.375-352.542-9.582-352.542-9.582L2904.324,2022.179z"/>
			<g>
				
					<linearGradient id="SVGID_00000176012331179100063400000011377394435815316141_" gradientUnits="userSpaceOnUse" x1="2522.9873" y1="1977.9657" x2="2923.9421" y2="1977.9657">
					<stop  offset="0" style="stop-color:#DAE3FE"/>
					<stop  offset="1" style="stop-color:#E9EFFD"/>
				</linearGradient>
				<path style="fill:url(#SVGID_00000176012331179100063400000011377394435815316141_);" d="M2923.591,2136.832l-87.517-305.631
					c-0.994-3.469-3.953-6-7.538-6.418c-15.857-1.85-61.803-7.044-114.853-11.531c-63.9-5.405-138.107-9.785-182.451-6.059
					c-6.304,0.53-10.114,7.197-7.31,12.869c25.217,51.016,128.942,258.538,180.884,326.52c1.721,2.252,4.382,3.569,7.216,3.542
					l203.055-1.889C2920.986,2148.18,2925.218,2142.512,2923.591,2136.832z"/>
				<path style="fill:#91B3FA;" d="M2704.606,1786.755l-63.452-10.573c-3.379-0.563-6.147,2.666-5.073,5.919l6.281,19.033
					c0.547,1.657,1.992,2.856,3.722,3.087l61.059,8.156c3.159,0.422,5.763-2.448,5.037-5.552l-3.888-16.617
					C2707.873,1788.42,2706.419,1787.057,2704.606,1786.755z"/>
				<path style="fill:#91B3FA;" d="M2752.116,1840.472l-5.227-27.227c-0.524-2.731-2.779-4.794-5.545-5.075l-128.158-13.005
					c-4.314-0.438-7.768,3.515-6.755,7.731l8.149,33.928c0.652,2.715,3.015,4.676,5.803,4.816l125.236,6.304
					C2749.696,1848.15,2752.886,1844.48,2752.116,1840.472z"/>
				
					<linearGradient id="SVGID_00000117641012121784539110000006341991793375948453_" gradientUnits="userSpaceOnUse" x1="-6070.2773" y1="2011.1735" x2="-5953.6812" y2="2011.1735" gradientTransform="matrix(-1 0 0 1 -3159.3877 0)">
					<stop  offset="0" style="stop-color:#A22B25"/>
					<stop  offset="1" style="stop-color:#C0423C"/>
				</linearGradient>
				<path style="fill:url(#SVGID_00000117641012121784539110000006341991793375948453_);" d="M2902.447,2062.991
					c0,0,12.191-50.13,7.273-67.915c-4.918-17.785-14.446-40.652-46.205-35.571c-31.76,5.082-69.222,18.46-69.222,18.46
					s1.892,23.166,26.03,15.692l-14.968,11.581c0,0,2.139,18.549,22.528,8.639l-13.921,15.36c0,0,8.756,15.234,23.756,5.463
					C2852.718,2024.93,2859.908,2069.028,2902.447,2062.991z"/>
			</g>
			
				<linearGradient id="SVGID_00000054970167919984938110000003304534330949713338_" gradientUnits="userSpaceOnUse" x1="2871.4551" y1="1559.1361" x2="2959.3411" y2="1947.8636">
				<stop  offset="0" style="stop-color:#A22B25"/>
				<stop  offset="1" style="stop-color:#C0423C"/>
			</linearGradient>
			<path style="fill:url(#SVGID_00000054970167919984938110000003304534330949713338_);" d="M2921.045,1570.508l48.654,140.703
				c0.806,2.331-0.152,4.912-2.311,6.105c-13.263,7.333-61.045,28.528-118.626-7.979c-5.999-3.803-10.082-10.006-10.993-17.05
				l-15.755-121.779H2921.045z"/>
			<g>
				
					<linearGradient id="SVGID_00000052103561767752024410000009349293987538883242_" gradientUnits="userSpaceOnUse" x1="-8918.4746" y1="-7201.5278" x2="-8769.7402" y2="-7441.5317" gradientTransform="matrix(-0.746 -0.6659 -0.6659 0.746 -8285.7227 -803.1727)">
					<stop  offset="0" style="stop-color:#A22B25"/>
					<stop  offset="1" style="stop-color:#C0423C"/>
				</linearGradient>
				<path style="fill:url(#SVGID_00000052103561767752024410000009349293987538883242_);" d="M2815.182,1440.213
					c0,0-53.427,100.57-46.578,141.195c6.848,40.625,73.063,37.708,130.883,4.714l40.404-108.593L2815.182,1440.213z"/>
				
					<linearGradient id="SVGID_00000176736736347407405000000012948320141134060679_" gradientUnits="userSpaceOnUse" x1="-9881.6953" y1="-5931.2358" x2="-9835.4424" y2="-5667.4209" gradientTransform="matrix(-0.746 -0.6659 -0.6659 0.746 -8285.7227 -803.1727)">
					<stop  offset="0" style="stop-color:#09005D"/>
					<stop  offset="1" style="stop-color:#1A0F91"/>
				</linearGradient>
				<path style="fill:url(#SVGID_00000176736736347407405000000012948320141134060679_);" d="M2896.93,1532.792
					c-2.35-1.041-3.217-3.916-1.809-6.067c4.281-6.539,12.304-19.88,14.864-31.559c0,0,9.604-6.151-24.445-14.301
					c-34.05-8.15-84.827-20.801-95.5-49.783c-10.406-28.257,16.935-99.32,60.554-42.698c1.66,2.154,4.911,2.202,6.568,0.046
					c7.151-9.307,25.95-28.625,52.051-16.913c24.425,10.959,27.177,28.857,26.841,37.879c-0.099,2.654,2.273,4.717,4.882,4.219
					c12.35-2.355,41.984-4.378,55.816,26.022c11.393,25.04,3.988,39.215-2.756,46.147c-2.185,2.246-1.228,5.944,1.769,6.861
					c8.116,2.485,18.597,9.367,17.548,28.381c-1.451,26.287-30.841,23.971-39.209,22.773c-1.371-0.196-2.752,0.274-3.681,1.302
					c-7.175,7.939-39.501,41.653-74.489,45.717c-3.03,0.352-5.377-2.64-4.385-5.524l15.142-44.014
					c0.703-2.044-0.275-4.286-2.251-5.162L2896.93,1532.792z"/>
				
					<linearGradient id="SVGID_00000108281067076841407230000004428815064607971464_" gradientUnits="userSpaceOnUse" x1="-8965.4941" y1="-7230.7085" x2="-8816.7568" y2="-7470.7153" gradientTransform="matrix(-0.746 -0.6659 -0.6659 0.746 -8285.7227 -803.1727)">
					<stop  offset="0" style="stop-color:#A22B25"/>
					<stop  offset="1" style="stop-color:#C0423C"/>
				</linearGradient>
				<path style="fill:url(#SVGID_00000108281067076841407230000004428815064607971464_);" d="M2890.844,1539.039
					c0,0,38.04-26.099,40.82-4.12c2.78,21.979-34.255,31.836-52.599,23.642L2890.844,1539.039z"/>
			</g>
		</g>
	</g>
</g>
</svg>
